<svg width="47" height="47" viewBox="0 0 47 47" fill="none" xmlns="http://www.w3.org/2000/svg">
<path d="M35.25 2.9375H11.75C6.88299 2.9375 2.9375 6.88299 2.9375 11.75V35.25C2.9375 40.117 6.88299 44.0625 11.75 44.0625H35.25C40.117 44.0625 44.0625 40.117 44.0625 35.25V11.75C44.0625 6.88299 40.117 2.9375 35.25 2.9375Z" fill="url(#paint0_radial_7247_42205)"/>
<path d="M35.25 2.9375H11.75C6.88299 2.9375 2.9375 6.88299 2.9375 11.75V35.25C2.9375 40.117 6.88299 44.0625 11.75 44.0625H35.25C40.117 44.0625 44.0625 40.117 44.0625 35.25V11.75C44.0625 6.88299 40.117 2.9375 35.25 2.9375Z" fill="url(#paint1_radial_7247_42205)"/>
<path d="M35.25 2.9375H11.75C6.88299 2.9375 2.9375 6.88299 2.9375 11.75V35.25C2.9375 40.117 6.88299 44.0625 11.75 44.0625H35.25C40.117 44.0625 44.0625 40.117 44.0625 35.25V11.75C44.0625 6.88299 40.117 2.9375 35.25 2.9375Z" fill="url(#paint2_radial_7247_42205)"/>
<path d="M33.7812 15.4219C33.7812 16.6386 32.7948 17.625 31.5781 17.625C30.3614 17.625 29.375 16.6386 29.375 15.4219C29.375 14.2051 30.3614 13.2188 31.5781 13.2188C32.7948 13.2188 33.7812 14.2051 33.7812 15.4219Z" fill="white"/>
<path fill-rule="evenodd" clip-rule="evenodd" d="M23.5 30.8438C27.5558 30.8438 30.8438 27.5558 30.8438 23.5C30.8438 19.4442 27.5558 16.1562 23.5 16.1562C19.4442 16.1562 16.1562 19.4442 16.1562 23.5C16.1562 27.5558 19.4442 30.8438 23.5 30.8438ZM23.5 27.9062C25.9336 27.9062 27.9062 25.9336 27.9062 23.5C27.9062 21.0664 25.9336 19.0938 23.5 19.0938C21.0664 19.0938 19.0938 21.0664 19.0938 23.5C19.0938 25.9336 21.0664 27.9062 23.5 27.9062Z" fill="white"/>
<path fill-rule="evenodd" clip-rule="evenodd" d="M8.8125 22.9125C8.8125 17.9771 8.8125 15.5093 9.773 13.6242C10.6179 11.966 11.966 10.6179 13.6242 9.773C15.5093 8.8125 17.9771 8.8125 22.9125 8.8125H24.0875C29.0229 8.8125 31.4907 8.8125 33.3757 9.773C35.0339 10.6179 36.3821 11.966 37.2269 13.6242C38.1875 15.5093 38.1875 17.9771 38.1875 22.9125V24.0875C38.1875 29.0229 38.1875 31.4907 37.2269 33.3757C36.3821 35.0339 35.0339 36.3821 33.3757 37.2269C31.4907 38.1875 29.0229 38.1875 24.0875 38.1875H22.9125C17.9771 38.1875 15.5093 38.1875 13.6242 37.2269C11.966 36.3821 10.6179 35.0339 9.773 33.3757C8.8125 31.4907 8.8125 29.0229 8.8125 24.0875V22.9125ZM22.9125 11.75H24.0875C26.6038 11.75 28.3141 11.7523 29.6363 11.8603C30.9242 11.9655 31.5828 12.1562 32.0422 12.3903C33.1476 12.9536 34.0464 13.8524 34.6096 14.9577C34.8437 15.4172 35.0345 16.0758 35.1397 17.3637C35.2477 18.6859 35.25 20.3962 35.25 22.9125V24.0875C35.25 26.6038 35.2477 28.3141 35.1397 29.6363C35.0345 30.9242 34.8437 31.5828 34.6096 32.0422C34.0464 33.1476 33.1476 34.0464 32.0422 34.6096C31.5828 34.8437 30.9242 35.0345 29.6363 35.1397C28.3141 35.2477 26.6038 35.25 24.0875 35.25H22.9125C20.3962 35.25 18.6859 35.2477 17.3637 35.1397C16.0758 35.0345 15.4172 34.8437 14.9577 34.6096C13.8524 34.0464 12.9536 33.1476 12.3903 32.0422C12.1562 31.5828 11.9655 30.9242 11.8603 29.6363C11.7523 28.3141 11.75 26.6038 11.75 24.0875V22.9125C11.75 20.3962 11.7523 18.6859 11.8603 17.3637C11.9655 16.0758 12.1562 15.4172 12.3903 14.9577C12.9536 13.8524 13.8524 12.9536 14.9577 12.3903C15.4172 12.1562 16.0758 11.9655 17.3637 11.8603C18.6859 11.7523 20.3962 11.75 22.9125 11.75Z" fill="white"/>
<defs>
<radialGradient id="paint0_radial_7247_42205" cx="0" cy="0" r="1" gradientUnits="userSpaceOnUse" gradientTransform="translate(17.625 33.7813) rotate(-55.3758) scale(37.4819)">
<stop stop-color="#B13589"/>
<stop offset="0.79309" stop-color="#C62F94"/>
<stop offset="1" stop-color="#8A3AC8"/>
</radialGradient>
<radialGradient id="paint1_radial_7247_42205" cx="0" cy="0" r="1" gradientUnits="userSpaceOnUse" gradientTransform="translate(16.1563 45.5313) rotate(-65.1363) scale(33.1852)">
<stop stop-color="#E0E8B7"/>
<stop offset="0.444662" stop-color="#FB8A2E"/>
<stop offset="0.71474" stop-color="#E2425C"/>
<stop offset="1" stop-color="#E2425C" stop-opacity="0"/>
</radialGradient>
<radialGradient id="paint2_radial_7247_42205" cx="0" cy="0" r="1" gradientUnits="userSpaceOnUse" gradientTransform="translate(0.734376 4.40625) rotate(-8.1301) scale(57.121 12.2176)">
<stop offset="0.156701" stop-color="#406ADC"/>
<stop offset="0.467799" stop-color="#6A45BE"/>
<stop offset="1" stop-color="#6A45BE" stop-opacity="0"/>
</radialGradient>
</defs>
</svg>
