<svg width="24" height="24" viewBox="0 0 24 24" fill="none" xmlns="http://www.w3.org/2000/svg">
<path fill-rule="evenodd" clip-rule="evenodd" d="M17.2563 12.2011C15.9573 12.7227 14.5552 13.0445 13.0887 13.1278C12.8358 13.1422 12.5809 13.1495 12.3244 13.1495C12.0679 13.1495 11.813 13.1422 11.5601 13.1278C10.0933 13.0444 8.69082 12.7226 7.3916 12.2008C4.6651 11.1057 2.39319 9.12986 0.93457 6.62906C3.20808 2.73115 7.45744 0.108643 12.3244 0.108643C17.1914 0.108643 21.4407 2.73115 23.7142 6.62906C22.2554 9.13014 19.9832 11.1061 17.2563 12.2011Z" fill="white"/>
<path d="M7.39159 13.2157C7.07749 13.0896 6.76942 12.9517 6.46793 12.8027C5.48813 13.4873 4.65983 14.3399 4.03613 15.3126C5.09626 16.9659 6.74748 18.2722 8.72911 18.9962C9.67338 19.3412 10.6927 19.554 11.7588 19.6091H12.8698C13.9356 19.554 15.809 20.6012 13.0887 23.2441C15.0706 22.5201 19.5322 16.9661 20.5924 15.3126C19.9705 14.3426 19.1451 13.4921 18.169 12.8086C17.871 12.9555 17.5666 13.0915 17.2563 13.2161C15.9573 13.7377 14.5552 14.0594 13.0887 14.1428C12.8358 14.1572 12.5809 14.1644 12.3244 14.1644C12.0678 14.1644 11.813 14.1572 11.5601 14.1428C10.0932 14.0594 8.69081 13.7376 7.39159 13.2157Z" fill="white"/>
<rect x="6.83203" y="4.96118" width="11.0084" height="3.89926" rx="1.94963" fill="#162550"/>
<ellipse cx="15.3722" cy="6.88918" rx="0.720788" ry="0.714864" fill="#04FED1"/>
<ellipse cx="12.3136" cy="16.5069" rx="0.720788" ry="0.714864" fill="#162550"/>
<ellipse cx="9.43173" cy="6.88918" rx="0.720788" ry="0.714864" fill="#04FED1"/>
<ellipse cx="9.43173" cy="16.5071" rx="0.720788" ry="0.714864" fill="#162550"/>
<ellipse cx="15.1974" cy="16.5071" rx="0.720788" ry="0.714864" fill="#162550"/>
</svg>
