<svg width="47" height="47" viewBox="0 0 47 47" fill="none" xmlns="http://www.w3.org/2000/svg">
<path d="M47 23.5C47 36.4787 36.4787 47 23.5 47C10.5213 47 0 36.4787 0 23.5C0 10.5213 10.5213 0 23.5 0C36.4787 0 47 10.5213 47 23.5Z" fill="white"/>
<path d="M47 23.5C47 36.4787 36.4787 47 23.5 47C10.5213 47 0 36.4787 0 23.5C0 10.5213 10.5213 0 23.5 0C36.4787 0 47 10.5213 47 23.5ZM24.3422 17.3488C22.0564 18.2995 17.4882 20.2673 10.6375 23.2521C9.52504 23.6943 8.94231 24.1272 8.88925 24.5502C8.7996 25.2656 9.69518 25.5471 10.9148 25.9306C11.0806 25.9828 11.2526 26.0368 11.4288 26.0942C12.6286 26.484 14.2427 26.9404 15.0817 26.9585C15.8429 26.9749 16.6924 26.6612 17.6302 26.0171C24.0311 21.6964 27.3352 19.5125 27.5427 19.4655C27.6891 19.4321 27.8919 19.3906 28.0292 19.5125C28.1666 19.6347 28.153 19.866 28.1387 19.928C28.0498 20.3063 24.5342 23.5747 22.7151 25.266C22.1725 25.7703 21.6437 26.2855 21.1108 26.7992C19.9961 27.8736 19.1603 28.6794 21.157 29.9954C23.1813 31.3295 25.2209 32.6608 27.1951 34.0682C28.1687 34.7624 29.0436 35.3861 30.1242 35.2867C30.7523 35.2288 31.4009 34.6383 31.7302 32.8772C32.5087 28.7154 34.039 19.6979 34.3927 15.9819C34.4237 15.6564 34.3847 15.2397 34.3535 15.0568C34.3222 14.8739 34.2567 14.6133 34.0191 14.4204C33.7373 14.192 33.3028 14.1438 33.1084 14.1472C32.2244 14.1628 30.8684 14.6343 24.3422 17.3488Z" fill="#23A0DD"/>
</svg>
